<svg width="111" height="65" viewBox="0 0 111 65" fill="none" xmlns="http://www.w3.org/2000/svg">
<path d="M16.4626 60.9009V64.8967H14.0757V54.0576H16.6517C17.6679 54.0576 18.436 54.1839 18.9323 54.4365C19.4286 54.6891 19.6767 55.1943 19.6767 55.9751V58.9834C19.6767 59.6953 19.464 60.2005 19.0622 60.4876C18.6605 60.7861 17.7979 60.9239 16.4626 60.9009ZM17.278 58.7767V56.1818C17.278 55.7914 17.0062 55.6077 16.4626 55.6077V59.3509C17.0062 59.3509 17.278 59.1671 17.278 58.7767ZM26.7548 64.8967H24.3088L23.8952 61.9917H22.8081L22.3945 64.8967H19.9603L21.78 54.0576H24.9232L26.7548 64.8967ZM23.7061 60.4876L23.3516 57.2496L23.0208 60.4876H23.7061ZM32.2495 55.4699H30.8788V64.8967H28.4209V55.4699H27.0502V54.0576H32.2495V55.4699ZM35.1445 64.8967H32.6867V54.0576H35.1445V64.8967ZM41.8799 64.8967H39.3512L37.6614 59.1212V64.8967H35.6172V54.0576H38.4177L39.8357 58.9949V54.0576H41.8799V64.8967ZM47.9536 64.8967H45.4958V59.6953H44.8222V64.8967H42.3644V54.0576H44.8222V58.3749H45.4958V54.0576H47.9536V64.8967ZM55.0908 64.8967H52.6566L52.243 61.9917H51.1559L50.7423 64.8967H48.2963L50.1278 54.0576H53.2592L55.0908 64.8967ZM52.0421 60.4876L51.6876 57.2496L51.3568 60.4876H52.0421ZM58.2812 64.8967V54.0576H61.3417C62.0034 54.0576 62.5943 54.2298 63.1142 54.5858C63.6341 54.9303 63.8941 55.4699 63.8941 56.1933V62.761C63.8941 63.4385 63.6577 63.9666 63.1733 64.3341C62.677 64.713 62.0743 64.8967 61.3535 64.8967H58.2812ZM61.4362 62.9333V56.0211C61.4362 55.6421 61.2117 55.4469 60.7391 55.4469V63.5074C61.2117 63.5074 61.4362 63.3122 61.4362 62.9333ZM69.1997 64.8967H64.4022V54.0576H69.1761V55.4469H66.86V58.3749H68.9515V59.6953H66.86V63.5074H69.1997V64.8967ZM79.0783 64.8967H76.6441L76.2305 61.9917H75.1434L74.7298 64.8967H72.2838L74.1154 54.0576H77.2467L79.0783 64.8967ZM76.0296 60.4876L75.687 57.2496L75.3443 60.4876H76.0296ZM85.7192 64.8967H83.1904L81.5125 59.1212V64.8967H79.4682V54.0576H82.2569L83.6749 58.9949V54.0576H85.7192V64.8967ZM86.2273 60.5335H88.3897V63.2088C88.3897 63.3925 88.5079 63.4729 88.7324 63.4729C88.9569 63.4729 89.0632 63.3925 89.0632 63.2088V54.0576H91.5211V63.0481C91.5211 64.3456 90.5994 65 88.7442 65C88.0825 65 87.5035 64.8393 86.9953 64.5293C86.4754 64.2078 86.2273 63.8059 86.2273 63.2892V60.5335ZM92.0174 63.0481V56.067C92.0174 54.6662 92.9509 53.9658 94.8179 53.9658C96.6731 53.9658 97.5948 54.6547 97.5948 56.0555V63.0251C97.5948 63.6566 97.3348 64.1504 96.8149 64.4833C96.3068 64.8278 95.6332 65 94.8061 65C92.9391 65 92.0174 64.3456 92.0174 63.0481ZM95.196 63.1514V55.7799C95.196 55.5618 95.066 55.4469 94.8061 55.4469C94.5343 55.4469 94.4043 55.5618 94.4043 55.7799V63.1514C94.4043 63.3696 94.5343 63.4729 94.8061 63.4729C95.066 63.4729 95.196 63.3696 95.196 63.1514Z" fill="#F7B05D"/>
<path fill-rule="evenodd" clip-rule="evenodd" d="M47.1147 26.7877C49.8561 28.2229 52.5975 23.7105 52.7039 20.4266C52.8102 17.1542 50.3878 13.5603 48.8044 11.9184C47.221 10.2765 44.6805 11.2065 44.1605 12.0217C44.1605 12.0217 43.4279 12.5958 42.9316 14.1344C42.6716 14.9267 42.4708 15.983 42.4708 17.3494C42.4708 18.5206 42.6362 19.6803 42.9316 20.7825C43.6524 23.4694 45.1649 25.7772 47.1147 26.7877Z" fill="#FEFEFE"/>
<path fill-rule="evenodd" clip-rule="evenodd" d="M58.5175 27.6144C60.8217 28.2459 63.0787 25.4787 64.4494 22.6426C65.0757 21.3337 65.5247 20.0017 65.6901 18.9913C65.9855 17.2346 65.6665 14.6052 64.4494 13.101C63.4568 11.8839 61.8852 11.4132 59.5692 12.7451C59.5692 12.7451 55.7643 15.0989 55.2443 18.6928C54.7126 22.2752 55.138 26.6843 58.5175 27.6144Z" fill="#FEFEFE"/>
<path fill-rule="evenodd" clip-rule="evenodd" d="M67.9116 26.3858C67.9116 26.3858 65.8555 27.7981 64.4494 29.8764C63.7758 30.8523 63.2559 31.9661 63.1614 33.1487C62.9605 35.4911 63.3504 37.3397 64.4494 38.3731C65.0757 38.9702 65.9383 39.3031 67.0608 39.3031C70.1213 39.3031 74.0326 34.9974 74.0326 30.9901C74.0326 26.9944 71.8111 23.9172 67.9116 26.3858Z" fill="#FEFEFE"/>
<path fill-rule="evenodd" clip-rule="evenodd" d="M42.9318 34.7448C43.4281 33.8147 43.5108 32.4598 43.2036 30.4849C43.1445 30.0715 43.05 29.6697 42.9318 29.2793C41.8565 25.8691 38.8787 23.7105 38.8787 23.7105C32.7578 21.0466 31.9188 28.1196 33.1832 31.1968C34.4475 34.274 36.8699 37.0526 39.8359 36.536C41.3602 36.2719 42.3882 35.7552 42.9318 34.7448Z" fill="#FEFEFE"/>
<path fill-rule="evenodd" clip-rule="evenodd" d="M64.4495 42.5181C62.3816 38.3386 58.8248 34.4118 57.2414 33.0454C55.3508 31.4035 51.9712 30.7949 50.3878 32.632C50.3878 32.632 46.1693 35.6518 42.9316 39.4983C41.6909 40.968 40.6038 42.5411 39.9302 44.1256C37.8505 49.0399 40.2729 51.4052 42.9316 51.5889C43.3688 51.6234 43.8297 51.6004 44.2669 51.5086C47.3274 50.8885 52.0776 47.9147 57.1351 49.8666C60.0301 50.9804 62.8424 50.8885 64.4495 49.6714C65.6548 48.7644 66.1629 47.2028 65.4775 45.0442C65.2175 44.206 64.863 43.3563 64.4495 42.5181Z" fill="#FEFEFE"/>
<path fill-rule="evenodd" clip-rule="evenodd" d="M107.273 19.4621C104.578 18.8421 101.648 19.0832 98.9301 19.3932C96.3895 19.6803 93.8608 20.0592 91.3793 20.53C86.4282 21.4485 81.5834 22.8723 77.0341 24.9735C74.8362 25.9954 72.5793 27.1781 70.6768 28.6478C69.8969 29.2334 69.2824 29.9682 69.3061 30.9672C69.3061 31.7939 70.0387 32.5058 70.8186 32.7813C71.5512 33.0454 72.2366 33.0224 72.9101 32.8847C74.139 33.0454 75.2025 33.2291 76.3015 33.941C77.4477 34.6759 78.3457 35.7667 79.0311 36.9034C79.7637 38.132 79.9528 39.4869 79.9764 40.8762C80 42.254 80.13 43.5974 80.9808 44.7342C82.4815 46.7435 85.2111 46.0546 86.4518 44.1715C86.5818 43.9534 86.7 43.7467 86.7945 43.5285C87.0663 44.0223 87.3853 44.4701 87.7989 44.849C89.0396 46.0087 91.0366 46.2957 92.4428 45.2279C93.1282 44.7112 93.4472 44.0223 93.5181 43.3104C94.9834 44.1715 96.9803 43.9534 97.8784 42.1737C98.1265 41.7029 98.1974 41.1862 98.1265 40.6465C98.5638 40.7843 99.0246 40.8532 99.4854 40.8303C100.797 40.7154 101.695 39.6246 101.849 38.442C101.896 38.0631 101.825 37.7071 101.671 37.3512C102.085 37.5119 102.534 37.6382 102.971 37.6842C105.086 37.8908 106.694 36.7082 106.965 34.6759C107.154 33.2062 106.256 31.8628 105.134 30.9097C105.748 30.8409 106.327 30.7031 106.859 30.5653C108.277 30.2093 109.766 29.0267 109.494 27.4422C109.376 26.7762 109.01 26.248 108.525 25.8462C109.518 25.5247 110.345 24.8817 110.806 23.7909C111.739 21.5174 109.104 19.864 107.273 19.4621ZM75.0135 32.2876C76.006 32.0694 77.0577 32.1268 77.3768 33.2291C76.6441 32.8272 75.8406 32.5058 75.0135 32.2876ZM108.809 24.009C108.159 24.6635 107.036 24.7668 106.055 24.8128C104.578 24.5487 102.841 24.9735 101.778 26.0413C101.695 26.1102 101.778 26.2021 101.849 26.1791C102.38 26.0873 102.924 25.9725 103.479 25.9265C104.058 25.9036 104.649 25.9954 105.228 26.0413C106.209 26.1102 107.639 26.5121 107.958 27.534C108.301 28.6707 106.233 29.0726 105.524 29.1874C104.448 29.3826 103.338 29.2563 102.262 29.4286C100.703 29.0496 98.9537 29.1185 97.5593 29.6352C97.5121 29.6582 97.5121 29.7271 97.5593 29.7271C100.218 30.749 105.276 30.439 105.429 34.3429C105.5 36.4556 103.089 36.3637 101.671 35.7437C100.336 35.1466 99.1191 33.964 97.6066 33.8032C96.8504 33.3784 96.0705 33.0454 95.196 32.9076C95.1488 32.9076 95.1015 32.9536 95.1251 32.9995C95.716 33.7573 96.2714 34.274 97.0749 34.8251C97.9493 35.4107 98.8237 36.0307 99.6272 36.7312C100.407 37.443 100.797 38.5798 99.7336 39.1768C98.871 39.6476 98.0202 39.2228 97.323 38.729C96.4604 37.466 95.0779 36.4326 93.908 36.1685C93.8135 36.1456 93.719 36.2604 93.7663 36.3293C94.7352 37.6612 95.9287 38.7979 96.484 40.3595C96.8267 41.301 96.2477 42.0129 95.326 42.2311C94.5461 42.3918 93.6835 41.8292 93.1991 41.2781C93.1045 40.9451 92.9627 40.6465 92.8091 40.3595C91.9583 38.5798 90.8121 37.1904 89.0396 36.2834C88.9451 36.2374 88.7915 36.3637 88.8624 36.4556C89.595 37.443 90.304 38.5109 90.883 39.6017C91.4502 40.6121 92.4192 42.5526 91.7929 43.6663C91.1075 44.8719 89.406 44.3093 88.6497 43.5974C87.4562 42.5066 87.3026 40.9451 87.019 39.4524C87.019 39.4065 86.9954 39.3835 86.9954 39.3376C86.9481 39.1309 86.889 38.9127 86.8418 38.7061C86.6527 37.9712 86.0855 37.443 85.6483 36.8575C85.601 36.7886 85.5065 36.8345 85.5065 36.9034C85.6247 37.5464 85.5774 38.2009 85.6247 38.8439C85.6719 39.4294 85.7547 40.0035 85.7547 40.5891C85.7547 41.8062 85.5065 43.1267 84.5612 43.9763C83.5568 44.8719 82.4342 44.2634 81.9025 43.2645C81.288 42.1048 81.6071 40.5432 81.4416 39.2917C81.1699 37.1675 80.0473 35.0548 78.2512 33.7573C78.0267 33.5851 77.7903 33.4473 77.5186 33.2865C77.814 32.7354 77.5895 32.2646 77.1995 31.7939C76.8805 31.392 76.4196 31.1738 75.9588 31.082C76.5732 30.6112 77.1522 30.106 77.7667 29.7041C80.9217 27.6029 84.5848 26.3743 88.3543 25.7084C88.4252 25.6854 88.4016 25.5935 88.3307 25.5935C85.2111 25.6624 82.1506 26.4662 79.3737 27.7866C77.8612 28.5215 76.4905 29.4286 75.1316 30.416C74.7417 30.7031 74.3517 30.9672 73.9382 31.1968C73.1346 31.415 72.3547 31.6905 71.5512 31.5068C71.4567 31.4838 71.3622 31.4609 71.2794 31.415C71.1376 31.3461 70.9958 31.2427 70.8659 31.1279C70.7477 30.9901 70.7004 30.8179 70.7241 30.6112C70.8186 30.0601 71.5512 29.6352 71.9648 29.3482C75.9588 26.604 80.5081 24.7209 85.1875 23.366C89.9613 21.9652 94.9597 21.1385 99.9227 20.6448C102.475 20.3807 105.665 20.1051 108.052 21.1615C109.305 21.7815 109.813 23.033 108.809 24.009Z" fill="#FEFEFE"/>
<path fill-rule="evenodd" clip-rule="evenodd" d="M0.203155 25.2146C0.663999 26.3054 1.49115 26.9369 2.48374 27.2699C1.99926 27.6718 1.63295 28.1655 1.51479 28.8544C1.24301 30.439 2.73189 31.5987 4.13805 31.9776C4.68161 32.1268 5.26062 32.2417 5.87508 32.3335C4.75251 33.2865 3.85446 34.6299 4.04352 36.0996C4.3153 38.132 5.92234 39.3376 8.0375 39.0965C8.47471 39.0505 8.91192 38.9357 9.3255 38.775C9.1837 39.0965 9.1128 39.4754 9.16007 39.8543C9.30187 41.0599 10.1999 42.1277 11.5234 42.2425C11.9842 42.2999 12.4451 42.2196 12.8823 42.0588C12.8114 42.5755 12.8823 43.1037 13.1304 43.5974C14.0521 45.3657 16.0255 45.5838 17.4789 44.7341C17.5616 45.469 17.8688 46.1235 18.5542 46.6517C19.9485 47.708 21.9692 47.4324 23.2099 46.2727C23.6235 45.8938 23.9661 45.4231 24.2025 44.9408C24.297 45.1819 24.4034 45.4001 24.5452 45.5838C25.7859 47.4784 28.4919 48.1673 30.028 46.1464C30.8788 45.0212 30.997 43.6663 31.0206 42.2999C31.0442 40.8991 31.2451 39.5557 31.9659 38.3157C32.6513 37.1904 33.5493 36.0996 34.6955 35.3648C35.7945 34.6529 36.8698 34.4692 38.0869 34.2969C38.7604 34.4462 39.4694 34.4692 40.1784 34.2051C40.9347 33.941 41.6673 33.2291 41.6909 32.3794C41.6909 31.369 41.1001 30.6571 40.3202 30.0601C38.4177 28.6018 36.1608 27.3847 33.9629 26.3973C29.4136 24.2961 24.5688 22.8952 19.6295 21.9537C17.1244 21.4715 14.6075 21.0926 12.0787 20.817C9.34913 20.507 6.45409 20.2659 3.72447 20.8859C1.8811 21.3107 -0.753982 22.9641 0.203155 25.2146ZM33.5966 34.6529C33.9156 33.5391 34.9673 33.5162 35.9599 33.7114C35.1327 33.941 34.3292 34.274 33.5966 34.6529ZM2.89732 22.6771C5.28425 21.6207 8.49834 21.8963 11.0271 22.1604C16.0018 22.6541 20.9648 23.4808 25.7623 24.8816C30.4416 26.2365 34.991 28.1196 38.9849 30.8638C39.3985 31.1509 40.1311 31.5757 40.2257 32.1268C40.2729 32.3335 40.202 32.5057 40.0839 32.6435C39.9303 32.7583 39.8121 32.8502 39.6703 32.9306C39.5639 32.9765 39.4694 32.9995 39.3985 33.0224C38.595 33.2061 37.7915 32.9306 37.0116 32.7124C36.598 32.5057 36.1844 32.2187 35.8181 31.9316C34.4828 30.9671 33.1121 30.0371 31.576 29.3022C28.8109 27.9818 25.715 27.1781 22.6191 27.1092C22.5482 27.1092 22.5245 27.224 22.5954 27.224C26.3413 27.867 30.0044 29.1185 33.183 31.2198C33.7739 31.6216 34.3765 32.1268 34.991 32.5976C34.5065 32.6895 34.0693 32.9076 33.7502 33.3095C33.3603 33.7803 33.1594 34.251 33.4312 34.7907C33.1594 34.9399 32.9231 35.1007 32.6985 35.2729C30.9024 36.5474 29.7799 38.6487 29.5081 40.8073C29.3663 42.0588 29.6617 43.6434 29.0472 44.7801C28.5391 45.779 27.3929 46.3876 26.4004 45.492C25.4432 44.6423 25.1833 43.3104 25.2069 42.1048C25.2069 41.5192 25.2778 40.9451 25.325 40.3595C25.3723 39.7165 25.3014 39.0505 25.4432 38.419C25.4668 38.3157 25.3487 38.2927 25.3014 38.3731C24.8642 38.9587 24.297 39.4754 24.1079 40.2102C24.0607 40.4284 24.0134 40.635 23.9662 40.8532C23.9307 40.8762 23.9307 40.9221 23.9307 40.968C23.6471 42.4377 23.4935 43.9993 22.3 45.1131C21.5556 45.8249 19.8422 46.3876 19.1686 45.1819C18.5306 44.0452 19.4995 42.1277 20.0667 41.1173C20.6457 40.0495 21.3547 38.9587 22.0873 37.9712C22.1582 37.8679 22.0164 37.753 21.9101 37.799C20.114 38.7175 18.9914 40.1184 18.1406 41.8751C17.9988 42.1507 17.8688 42.4837 17.7507 42.7937C17.2662 43.3563 16.4154 43.9304 15.6355 43.7352C14.7138 43.5285 14.0994 42.8396 14.4657 41.8751C15.0211 40.3136 16.2382 39.1768 17.1953 37.8449C17.2662 37.753 17.148 37.6612 17.0417 37.6842C15.8718 37.9368 14.4893 38.9816 13.6385 40.2332C12.9295 40.7384 12.0787 41.1632 11.228 40.6925C10.129 40.0954 10.519 38.9587 11.3225 38.2468C12.1024 37.5349 13.0004 36.9493 13.8749 36.3293C14.6784 35.7896 15.2456 35.2729 15.8246 34.5151C15.8718 34.4692 15.8009 34.4118 15.7537 34.4118C14.8793 34.584 14.0994 34.894 13.3431 35.3188C11.8306 35.4796 10.6371 36.6623 9.27823 37.2593C7.8957 37.8679 5.4615 37.9712 5.5324 35.8585C5.6742 31.9546 10.7435 32.2646 13.3904 31.2427C13.4376 31.2198 13.4376 31.1509 13.3904 31.1509C11.9842 30.6112 10.2236 30.5653 8.69922 30.9442C7.62392 30.772 6.50135 30.8868 5.42605 30.7031C4.72888 30.5882 2.66099 30.1864 2.99185 29.0496C3.3109 28.0277 4.75251 27.6029 5.72146 27.557C6.31229 27.511 6.8913 27.4192 7.48212 27.4421C8.0375 27.4651 8.54561 27.6029 9.1128 27.6948C9.1837 27.7177 9.2546 27.6259 9.1837 27.557C8.1084 26.4891 6.38319 26.0643 4.89431 26.3284C3.92535 26.2825 2.82642 26.1791 2.14106 25.5246C1.17211 24.4798 1.68022 23.2282 2.89732 22.6771Z" fill="#FEFEFE"/>
<path fill-rule="evenodd" clip-rule="evenodd" d="M52.4204 0.597068H52.444H52.4795C53.4602 0.597068 54.4292 0.562621 55.3982 0.562621C56.7216 0.562621 58.0214 0.631514 59.3331 0.99894C61.1528 1.49267 63.0434 3.08868 62.6535 5.14397C62.4053 6.46441 61.3064 7.48631 60.0775 8.02597C58.2341 8.82971 56.0244 9.18566 53.7911 9.18566C51.2151 9.18566 48.6037 8.71489 46.4885 7.86522C43.5462 6.69405 43.0263 3.28387 46.0867 1.83713C48.0483 0.930048 50.2698 0.597068 52.4204 0.597068ZM53.7911 9.74828C56.2371 9.74828 58.4941 9.32344 60.3138 8.53118C61.8736 7.85374 62.9607 6.62516 63.2207 5.23582C63.6461 2.92793 61.6136 1.04487 59.4867 0.459283C58.0214 0.0574104 56.6034 0 55.3982 0C54.9137 0 54.4174 0.0114821 53.9329 0.0229641C53.4602 0.0344462 52.964 0.0459283 52.4795 0.0459283H52.444H52.4204C49.8917 0.0459283 47.682 0.482247 45.8386 1.3434C44.3025 2.06677 43.4044 3.35276 43.4517 4.78802C43.4989 6.32662 44.5861 7.70447 46.2758 8.38191C48.4737 9.26603 51.1442 9.74828 53.7911 9.74828Z" fill="#F58634"/>
<path fill-rule="evenodd" clip-rule="evenodd" d="M46.1102 5.08656C46.3348 4.38615 47.0792 4.08762 48.0482 3.7776C49.3716 3.3298 50.7305 3.05423 52.0658 2.95089H52.1012C52.8811 2.84756 53.6374 2.80163 54.3582 2.80163C56.5915 2.80163 58.3876 3.27239 59.5574 4.17948C60.0774 4.58135 60.3373 5.02915 60.3255 5.49991C60.3019 6.00513 59.9474 6.51034 59.3211 6.91221C58.1867 7.65854 56.5797 8.02597 54.5709 8.02597C53.2356 8.02597 51.6876 7.86522 50.0097 7.53224C49.1707 7.36001 47.8945 7.1074 47.0438 6.59071L46.9965 6.56775C46.4647 6.30366 45.8857 5.83289 46.1102 5.08656ZM46.7365 7.06148C47.6582 7.6241 48.958 7.88819 49.8915 8.0719C51.2622 8.34747 52.9284 8.58859 54.5709 8.58859C56.4142 8.58859 58.2458 8.27858 59.6401 7.37149C61.1527 6.39552 61.3654 4.8684 59.9119 3.74316C58.5058 2.66384 56.4733 2.25049 54.3582 2.25049C53.5783 2.25049 52.7984 2.29642 52.0303 2.39976C50.6005 2.50309 49.1825 2.80163 47.8591 3.24943C46.9374 3.55944 45.8857 3.92687 45.5667 4.92581C45.2595 5.91327 45.9094 6.64812 46.7365 7.06148Z" fill="#F58634"/>
</svg>
